<?xml version="1.0" encoding="utf-8"?>

<!DOCTYPE svg PUBLIC "-//W3C//DTD SVG 1.1//EN" "http://www.w3.org/Graphics/SVG/1.1/DTD/svg11.dtd">
<svg version="1.1" id="Layer_1" xmlns="http://www.w3.org/2000/svg" xmlns:xlink="http://www.w3.org/1999/xlink" x="0px" y="0px"
	 viewBox="0 0 1644.099 1644.099" enable-background="new 0 0 1644.099 1644.099" xml:space="preserve">
<g>
	<polygon fill="none" stroke="#000000" stroke-width="3" stroke-miterlimit="10" points="822.049,22.049 129.229,1222.049 
		1514.87,1222.049 	"/>
	<polygon fill="none" stroke="#000000" stroke-width="3" stroke-miterlimit="10" points="422.049,129.229 422.049,1514.87 
		1622.049,822.049 	"/>
	<polygon fill="none" stroke="#000000" stroke-width="3" stroke-miterlimit="10" points="129.229,422.049 822.049,1622.049 
		1514.87,422.05 	"/>
	<polygon fill="none" stroke="#000000" stroke-width="3" stroke-miterlimit="10" points="22.049,822.049 1222.049,1514.87 
		1222.049,129.229 	"/>
	<polygon fill="none" stroke="#000000" stroke-width="7" stroke-miterlimit="10" points="1514.87,1222.049 822.049,1622.049 
		129.229,1222.049 129.229,422.049 822.049,22.049 1514.87,422.049 	"/>
	<polygon fill="none" stroke="#000000" stroke-width="7" stroke-miterlimit="10" points="422.049,1514.87 22.049,822.049 
		422.049,129.229 1222.049,129.229 1622.049,822.049 1222.049,1514.87 	"/>
	
		<line fill="none" stroke="#000000" stroke-width="3" stroke-miterlimit="10" x1="636.408" y1="1514.871" x2="1007.69" y2="129.23"/>
	
		<line fill="none" stroke="#000000" stroke-width="3" stroke-miterlimit="10" x1="422.049" y1="1514.87" x2="1222.049" y2="129.229"/>
	
		<line fill="none" stroke="#000000" stroke-width="3" stroke-miterlimit="10" x1="316.231" y1="1327.868" x2="1329.734" y2="314.364"/>
	
		<line fill="none" stroke="#000000" stroke-width="3" stroke-miterlimit="10" x1="129.229" y1="1222.049" x2="1514.87" y2="422.049"/>
	
		<line fill="none" stroke="#000000" stroke-width="3" stroke-miterlimit="10" x1="129.23" y1="1007.69" x2="1514.873" y2="636.408"/>
	
		<line fill="none" stroke="#000000" stroke-width="3" stroke-miterlimit="10" x1="22.049" y1="822.049" x2="1622.049" y2="822.049"/>
	
		<line fill="none" stroke="#000000" stroke-width="3" stroke-miterlimit="10" x1="129.23" y1="636.409" x2="1514.873" y2="1007.691"/>
	
		<line fill="none" stroke="#000000" stroke-width="3" stroke-miterlimit="10" x1="129.229" y1="422.049" x2="1514.87" y2="1222.049"/>
	
		<line fill="none" stroke="#000000" stroke-width="3" stroke-miterlimit="10" x1="316.231" y1="316.231" x2="1329.734" y2="1329.734"/>
	
		<line fill="none" stroke="#000000" stroke-width="3" stroke-miterlimit="10" x1="422.049" y1="129.229" x2="1222.049" y2="1514.87"/>
	
		<line fill="none" stroke="#000000" stroke-width="3" stroke-miterlimit="10" x1="636.409" y1="129.23" x2="1007.695" y2="1514.889"/>
	
		<line fill="none" stroke="#000000" stroke-width="3" stroke-miterlimit="10" x1="822.049" y1="22.049" x2="822.049" y2="1622.049"/>
</g>
</svg>
