<?xml version="1.0" standalone="no"?>
<!DOCTYPE svg PUBLIC "-//W3C//DTD SVG 20010904//EN"
 "http://www.w3.org/TR/2001/REC-SVG-20010904/DTD/svg10.dtd">
<svg version="1.0" xmlns="http://www.w3.org/2000/svg"
 width="1280.000000pt" height="1172.000000pt" viewBox="0 0 1280.000000 1172.000000"
 preserveAspectRatio="xMidYMid meet">
<metadata>
Created by potrace 1.15, written by Peter Selinger 2001-2017
</metadata>
<g transform="translate(0.000000,1172.000000) scale(0.100000,-0.100000)"
fill="#404040" stroke="none">
<path d="M4295 11713 c-667 -56 -1197 -290 -1606 -709 -392 -403 -611 -911
-648 -1504 -19 -310 33 -533 174 -745 162 -244 405 -400 755 -486 112 -27 319
-33 410 -10 119 29 194 55 275 96 288 147 474 395 536 712 19 103 7 319 -25
426 -93 313 -326 557 -638 668 -101 36 -105 42 -94 142 26 247 285 443 703
531 382 80 818 55 1078 -63 l67 -31 101 104 c155 157 352 306 600 455 49 29
85 57 80 61 -16 16 -235 101 -396 155 -327 109 -594 165 -927 195 -106 9 -352
11 -445 3z"/>
<path d="M8231 11618 c-993 -47 -2031 -502 -2754 -1208 -388 -378 -698 -816
-900 -1272 -121 -272 -211 -560 -277 -888 -40 -198 -93 -531 -85 -538 2 -2
109 14 237 37 286 51 636 105 783 121 61 7 113 15 117 19 4 3 14 65 23 136 79
633 372 1215 858 1706 586 592 1376 929 2061 879 421 -31 746 -183 1025 -482
l53 -57 -54 -27 c-184 -93 -343 -255 -441 -449 -229 -456 -64 -1006 379 -1266
193 -113 411 -161 631 -139 254 26 552 199 751 436 229 272 332 588 319 974
-14 400 -157 771 -428 1110 -205 257 -489 481 -804 635 -429 210 -922 300
-1494 273z"/>
<path d="M7421 10125 c-231 -51 -401 -149 -614 -354 -70 -69 -133 -133 -138
-144 -9 -15 -2 -27 38 -70 289 -309 550 -741 685 -1137 67 -196 114 -398 144
-620 22 -159 25 -602 5 -765 -86 -717 -367 -1397 -829 -2012 l-84 -113 50 -57
c108 -125 254 -255 382 -341 104 -69 353 -192 389 -192 8 0 169 237 278 410
115 182 245 417 358 645 292 591 453 1102 531 1687 24 180 30 640 10 825 -86
808 -396 1494 -975 2157 -81 93 -85 96 -125 95 -23 0 -70 -7 -105 -14z"/>
<path d="M1486 8219 c-288 -42 -576 -199 -832 -454 -181 -180 -281 -317 -385
-530 -209 -429 -300 -932 -258 -1432 95 -1129 770 -2107 1818 -2632 443 -222
937 -363 1496 -426 77 -9 196 -23 265 -33 185 -24 765 -24 940 1 370 54 683
142 1115 314 105 42 192 78 195 81 3 2 -6 12 -20 21 -174 115 -435 390 -676
712 l-95 127 -72 -24 c-360 -124 -776 -194 -1147 -194 -545 0 -1106 140 -1552
385 -639 352 -1051 889 -1129 1473 -14 109 -6 388 15 492 21 103 67 250 78
250 5 0 38 -18 74 -39 80 -48 204 -94 314 -117 106 -21 343 -15 440 11 348 95
606 354 696 700 21 82 26 124 27 235 1 142 -8 205 -49 331 -52 160 -162 332
-272 427 -302 258 -647 370 -986 321z"/>
<path d="M10875 7873 c-94 -12 -282 -102 -409 -196 -118 -87 -266 -241 -321
-334 -59 -102 -103 -215 -127 -333 -24 -114 -21 -322 6 -434 108 -442 493
-746 946 -746 218 0 431 71 604 203 38 28 75 56 83 62 33 25 167 -84 212 -174
58 -113 70 -295 33 -471 -88 -408 -396 -895 -669 -1057 -24 -14 -43 -28 -43
-31 0 -4 9 -32 21 -62 30 -80 85 -301 109 -437 29 -173 40 -290 40 -455 0 -82
2 -148 6 -148 3 0 37 26 77 57 760 601 1227 1349 1339 2143 21 153 16 495 -11
669 -125 817 -569 1431 -1196 1654 -197 70 -529 113 -700 90z"/>
<path d="M5920 7549 c-1714 -91 -2975 -866 -3648 -2242 -99 -203 -242 -555
-242 -598 0 -7 818 -481 852 -494 13 -5 22 13 49 92 288 866 881 1532 1700
1908 321 148 675 251 1044 304 227 33 360 41 628 41 268 0 379 -7 630 -41 87
-12 159 -20 161 -18 2 2 19 228 37 503 23 330 31 500 24 502 -22 7 -361 34
-554 44 -227 11 -462 11 -681 -1z"/>
<path d="M9065 6828 c-37 -119 -259 -691 -361 -930 -30 -70 -54 -129 -54 -131
0 -2 21 -19 48 -37 303 -215 600 -549 799 -899 425 -748 529 -1708 269 -2466
-69 -203 -131 -330 -241 -495 -220 -332 -526 -550 -900 -640 -124 -30 -115
-37 -115 88 -1 611 -543 1080 -1131 977 -411 -72 -753 -404 -825 -800 -25
-141 -26 -408 0 -525 92 -423 369 -709 806 -834 282 -81 538 -118 820 -119
289 -1 532 34 789 113 858 264 1528 952 1830 1883 113 347 160 637 168 1039
14 644 -90 1172 -367 1868 -294 742 -682 1252 -1370 1803 -69 55 -132 107
-142 114 -14 13 -17 12 -23 -9z"/>
<path d="M4982 5946 l-451 -225 32 -73 c56 -129 242 -499 322 -643 497 -891
1085 -1541 1770 -1960 151 -92 462 -243 625 -303 255 -95 542 -165 805 -197
276 -34 668 -36 936 -5 120 14 398 60 424 70 15 6 24 24 33 66 52 239 68 452
52 712 -12 205 -18 262 -31 262 -4 0 -38 -6 -76 -14 -225 -48 -557 -70 -808
-55 -450 26 -839 131 -1244 333 -592 296 -1134 803 -1528 1431 -107 171 -282
515 -348 685 -26 69 -51 128 -55 133 -3 4 -209 -94 -458 -217z"/>
<path d="M1794 2754 c3 -33 8 -111 11 -174 7 -143 38 -385 64 -505 60 -280
212 -741 282 -857 248 -411 608 -740 1044 -954 194 -95 383 -162 576 -203 211
-46 305 -56 539 -55 237 1 377 19 574 74 515 145 899 491 1039 935 65 206 56
459 -24 720 -52 169 -114 271 -244 401 -137 138 -286 224 -479 276 -120 33
-356 32 -476 0 -229 -62 -430 -204 -559 -395 -50 -74 -117 -223 -143 -317 -20
-75 -22 -105 -21 -255 2 -93 4 -188 5 -210 l3 -40 -70 -35 c-68 -34 -73 -35
-185 -35 -105 1 -122 3 -195 33 -323 128 -672 552 -820 995 -33 99 -65 262
-65 334 0 30 -3 33 -80 63 -44 17 -138 49 -208 71 -170 53 -532 173 -555 183
-17 8 -18 4 -13 -50z"/>
</g>
</svg>
